<?xml version="1.0" standalone="no"?>
<!DOCTYPE svg PUBLIC "-//W3C//DTD SVG 20010904//EN"
 "http://www.w3.org/TR/2001/REC-SVG-20010904/DTD/svg10.dtd">
<svg version="1.0" xmlns="http://www.w3.org/2000/svg"
 width="225.000000pt" height="225.000000pt" viewBox="0 0 225.000000 225.000000"
 preserveAspectRatio="xMidYMid meet">
<metadata>
Created by potrace 1.14, written by Peter Selinger 2001-2017
</metadata>
<g transform="translate(0.000000,225.000000) scale(0.100000,-0.100000)"
fill="#000000" stroke="none">
<path d="M885 2230 c-397 -84 -718 -373 -838 -755 -41 -134 -50 -206 -45 -385
4 -134 10 -183 31 -262 101 -385 401 -686 787 -794 128 -35 379 -45 513 -20
437 83 774 397 888 831 21 80 24 111 23 280 0 172 -3 199 -26 286 -114 422
-439 734 -855 818 -134 28 -348 28 -478 1z m673 -910 c2 -62 0 -77 -14 -87
-23 -17 -804 -19 -835 -3 -16 9 -19 22 -19 84 0 40 3 76 7 79 3 4 198 6 432 5
l426 -3 3 -75z m-14 -303 c14 -10 16 -25 14 -87 l-3 -75 -430 0 -430 0 -3 75
c-2 62 0 77 14 87 26 19 812 19 838 0z"/>
</g>
</svg>
