<?xml version="1.0" standalone="no"?>
<!DOCTYPE svg PUBLIC "-//W3C//DTD SVG 20010904//EN"
 "http://www.w3.org/TR/2001/REC-SVG-20010904/DTD/svg10.dtd">
<svg version="1.0" xmlns="http://www.w3.org/2000/svg"
 width="192.000000pt" height="192.000000pt" viewBox="0 0 192.000000 192.000000"
 preserveAspectRatio="xMidYMid meet">
<metadata>
Created by potrace 1.14, written by Peter Selinger 2001-2017
</metadata>
<g transform="translate(0.000000,192.000000) scale(0.100000,-0.100000)"
fill="#000000" stroke="none">
<path d="M839 1916 c-2 -2 -23 -6 -47 -10 -24 -3 -60 -10 -80 -16 -20 -5 -39
-9 -42 -9 -3 1 -31 -10 -62 -24 -32 -14 -58 -23 -58 -19 0 4 -4 3 -8 -3 -4 -5
-23 -19 -42 -29 -90 -49 -172 -111 -236 -179 -67 -73 -132 -158 -126 -166 2
-2 -1 -7 -6 -10 -10 -6 -74 -138 -86 -178 -9 -29 -17 -65 -18 -80 -1 -7 -4
-13 -7 -13 -10 0 -16 -81 -15 -220 0 -135 5 -176 23 -238 5 -18 10 -36 10 -40
6 -62 136 -312 162 -312 5 0 9 -6 9 -13 0 -12 97 -111 161 -163 75 -62 232
-136 359 -170 68 -18 319 -26 390 -12 148 29 222 57 339 126 94 56 102 63 186
147 119 119 211 282 246 433 6 26 13 56 16 67 10 36 11 269 2 320 -5 28 -12
63 -15 79 -15 89 -77 228 -147 331 -49 72 -169 194 -229 231 -24 15 -45 30
-48 33 -9 11 -154 78 -205 95 -90 29 -193 44 -309 45 -62 0 -115 -1 -117 -3z"/>
</g>
</svg>
